<?xml version="1.0" encoding="utf-8"?>
<!-- Generator: Adobe Illustrator 22.0.1, SVG Export Plug-In . SVG Version: 6.00 Build 0)  -->
<svg version="1.1" id="Layer_1" xmlns="http://www.w3.org/2000/svg" xmlns:xlink="http://www.w3.org/1999/xlink" x="0px" y="0px"
	 viewBox="0 0 253.9 169.7" style="enable-background:new 0 0 253.9 169.7;" xml:space="preserve">
<style type="text/css">
	.st0{fill:#31A836;}
	.st1{stroke:#000000;stroke-width:2;stroke-miterlimit:10;}
	.st2{fill:#31A836;stroke:#31A836;stroke-width:2;stroke-miterlimit:10;}
</style>
<g>
	<path d="M89,99.1c0,0,1.4-3-3.6-6.3c0,0-15.4-11.3-4.4-23.9c0,0,10.3-14.2-1.4-21.9c0,0,7.5-0.3,8.6,10.9c0,0-2.2,17,26.1,28.8
		c0,0,28.6,9.9,28-1.6c0,0,5.2,0.8,7.1,7.7c0,0,0.8,5.8,8,6L89,99.1z"/>
</g>
<g>
	<path d="M76.5,97.9c-1.7-1.9-2.4-5.5-3.6-7.8c-1.8-3.5-6-8-6.1-11.2c0-1.1,1-3.2,1.1-4.8c0.5-7-4-12.5-6.5-18.6
		c-2.2-5.5-1.7-11.2,1.3-16.3c1.4-2.5,5.8-5.1,5.9-8c0.1-1.9-0.9-3.9-1.5-5.6c-2.3-5.7-2.3-13.2,0.6-18.7c2.5-4.7,5.7-5.9,9.7-6.5
		l0,0c0,0-9.4-0.5-13.8,10.4c-1.1,3.6-1,6.9-0.6,10.6c0.2,2.4,0.9,4.4,1.1,6.9C64.5,32,62,35.2,60,38.2c-5.5,8.2-3,17.3,1.8,25.1
		c2,3.3,4.8,7.8,3.5,11.9c-0.5,1.5-0.7,2.5-0.6,4.2c0.1,2.5,1.4,4.4,2.7,6.3c1.7,2.4,3.5,4.5,4.7,7.3c0.6,1.4,0.9,2.9,1.9,4.1
		c0.9,1.2,2.3,1.9,3.7,2.1c0.6,0.1,1.2,0,1.8-0.2C78.1,98.8,76.9,98.3,76.5,97.9"/>
</g>
<g>
	<path d="M180.2,87.6c-1.1,1.2-2.6,1.5-4.1,1.9c-3.7,0.9-7.2-0.2-10.4-1.9c-3.3-2.1-6.6-4.2-9-7.3c-1.1-1.4-2.6-3.4-3.3-5.2
		c1.3,7.1,6.5,14.7,13.2,17.6c3,1.3,6.3,1.9,9.6,2.3c3,0.4,6,0,9,0.2c2.4,0.1,5.1,0.1,7.5,1c0.8,0.3,1.8,0.9,2.5,1.6
		c-0.2-0.7-0.7-1.5-1.4-2.1c-0.2-0.1-0.6-0.5-0.8-0.6c-1.8-0.9-3.7-1.3-5.8-1.4c-9-0.2-10-0.3-11.5-1c1.8,0.2,5.4-0.3,7.1-0.4
		c2.1-0.1,4.3-0.2,6.4,0.1c0.7,0.1,1.4,0.3,2.1,0.5c-1.9-1.5-4.4-1.8-7.3-2c-1.5-0.1-2.9-0.1-4.4-0.2c1.1-1,1.7-2.7,1.4-4.1
		c-0.1-0.3-0.2-0.6-0.3-1C181,86.5,180.9,87,180.2,87.6"/>
</g>
<g>
	<path class="st0" d="M1.3,102.9h249C250.4,102.9,126.3,91.8,1.3,102.9"/>
</g>
<g>
	<path d="M74,16.2c0,0,3,7.8,11.3,7.9c0,0,18.4-3,28.5,12c0,0,12,22.1,38.6,15c0,0,4.9-7.1,8.6-1.9c0,0-1.8-1.1-4.1,0.4
		c0,0-6.4,3-4.9,13.1l7.5-1.9c0,0-9,4.5-9,6.8c0,0-1.9-8.3-0.4-13.1c0,0-23.6,7.1-37.9-16.5c0,0-6-13.5-27.8-12.4
		C84.5,25.6,75.8,26,74,16.2z"/>
</g>
<g>
	<path d="M164.5,51.5c0,0,9.4,6.4,13.1,11.3c0,0,2.2,2.6,0.8,7.5c0,0-2.3,9.4,1.1,10.9c0,0-6.4-1.1-3.7-11.6c0,0,0.7-5.6-0.4-6.8
		C175.3,62.8,167.1,53,164.5,51.5z"/>
</g>
<g>
	<path d="M57.4,154.4c1.2,1.2,1.8,2.7,1.8,4.4c0,1.7-0.6,3.2-1.8,4.4c-1.2,1.2-2.7,1.8-4.3,1.8c-1.7,0-3.1-0.6-4.4-1.9
		c-1.3-1.3-1.9-2.7-1.9-4.4c0-0.8,0.2-1.6,0.5-2.3c0.3-0.7,0.8-1.4,1.4-2c0.6-0.6,1.3-1.1,2.1-1.4c0.8-0.3,1.6-0.5,2.4-0.5
		c0.8,0,1.6,0.1,2.4,0.5C56.2,153.4,56.9,153.8,57.4,154.4 M55.7,156.1c-0.8-0.7-1.6-1.1-2.7-1.1c-1,0-1.8,0.3-2.4,0.9
		c-0.6,0.6-1,1.1-1.1,1.5c-0.2,0.4-0.3,0.9-0.3,1.3c0,0.5,0.1,1,0.3,1.5c0.2,0.5,0.6,0.9,1.2,1.5c0.6,0.5,1.3,0.8,2.4,0.8
		c0.5,0,1-0.1,1.4-0.3c0.4-0.2,0.8-0.5,1.3-0.9c0.4-0.4,0.7-0.8,0.9-1.3c0.2-0.4,0.3-0.9,0.3-1.3C56.9,157.8,56.5,156.9,55.7,156.1"
		/>
</g>
<g>
	<path d="M76.9,160.7h3.6c-0.2,0.4-0.5,0.8-0.9,1.3c-0.4,0.4-1.2,0.6-2.4,0.6c-1.2,0-2.1-0.4-2.8-1.1c-0.7-0.7-1-1.6-1-2.6
		c0-1,0.3-1.9,1-2.6c0.7-0.7,1.6-1.1,2.9-1.1c0.9,0,1.7,0.3,2.2,0.8c0.5,0.5,0.8,1,1,1.6h2.8c-0.3-1.4-1-2.6-2.1-3.5
		c-1.1-0.9-2.4-1.3-3.9-1.3c-2,0-3.5,0.6-4.6,1.8c-1.1,1.2-1.6,2.7-1.6,4.4c0,1.7,0.5,3.1,1.6,4.3c1.1,1.2,2.6,1.8,4.6,1.8
		c1.7,0,3.1-0.6,4.3-1.7c1.2-1.2,1.8-2.6,1.8-4.4v-0.3v-0.4l-6.5,0V160.7z"/>
</g>
<g>
	<path d="M29.2,160.2l-4.5-7.5h3.1l2.9,4.9l2.9-4.9h3l-4.6,7.6v4.7h-2.7V160.2z"/>
</g>
<g>
	<path d="M102.6,152.7h2.8l4.6,12.3h-2.8l-0.9-2.7h-4.6l-1,2.7h-2.7L102.6,152.7z M102.3,160.2h3.2l-1.6-4.5h0L102.3,160.2z"/>
</g>
<g>
	<path d="M146.6,160.7h3.6c-0.2,0.4-0.5,0.8-0.9,1.3c-0.4,0.4-1.2,0.6-2.4,0.6c-1.2,0-2.1-0.4-2.8-1.1c-0.7-0.7-1-1.6-1-2.6
		c0-1,0.3-1.9,1-2.6c0.7-0.7,1.6-1.1,2.9-1.1c0.9,0,1.7,0.3,2.2,0.8c0.5,0.5,0.8,1,1,1.6h2.8c-0.3-1.4-1-2.6-2.1-3.5
		c-1.1-0.9-2.4-1.3-3.9-1.3c-2,0-3.5,0.6-4.6,1.8c-1.1,1.2-1.6,2.7-1.6,4.4c0,1.7,0.5,3.1,1.6,4.3c1.1,1.2,2.6,1.8,4.6,1.8
		c1.7,0,3.1-0.6,4.3-1.7c1.2-1.2,1.8-2.6,1.8-4.4v-0.3v-0.4l-6.5,0V160.7z"/>
</g>
<g>
	<path d="M193.8,152.7h2.8l4.6,12.3h-2.8l-0.9-2.7h-4.6l-1,2.7h-2.7L193.8,152.7z M193.5,160.2h3.2l-1.6-4.5h0L193.5,160.2z"/>
</g>
<g>
	<path d="M174.5,155.2l-5.1,0v2.6h3.4v2.5h-3.4v2.2c0.9,0,1.8,0,2.9,0c1,0,1.8,0,2.2,0v2.5h-7.6l0-12.2h7.6V155.2z"/>
</g>
<g>
	<g>
		<path d="M211.9,165v-12.3h4.9c2.8,0,3.9,1.6,3.9,3.6c0,1.5-0.7,2.7-2.2,3.2l2.7,5.5h-2.6l-2.3-5h-2v5H211.9z M214.3,158.1h1.7
			c1.8,0,2.4-0.6,2.4-1.7c0-1.2-0.7-1.7-2-1.7h-2.1V158.1z"/>
	</g>
</g>
<g>
	<path class="st1" d="M22.1,143.2h-3.8v-13L6.2,112.5h4.5l9.5,14.3l9.5-14.3h4.5l-12.1,17.7V143.2z"/>
	<path class="st1" d="M50.3,143.8c-4.5,0-8.2-1.5-11-4.5c-2.8-3-4.2-6.8-4.2-11.4c0-4.6,1.4-8.4,4.2-11.4c2.8-3,6.5-4.5,11-4.5
		c4.5,0,8.1,1.5,11,4.5c2.8,3,4.3,6.8,4.3,11.4c0,4.6-1.4,8.4-4.3,11.4C58.4,142.3,54.8,143.8,50.3,143.8z M50.3,140.4
		c3.4,0,6.1-1.2,8.2-3.5c2.1-2.3,3.1-5.3,3.1-8.9c0-3.6-1-6.6-3.1-9c-2.1-2.3-4.8-3.5-8.2-3.5c-3.4,0-6.1,1.2-8.2,3.5
		c-2.1,2.3-3.1,5.3-3.1,9c0,3.6,1,6.6,3.1,8.9C44.2,139.2,46.9,140.4,50.3,140.4z"/>
	<path class="st1" d="M93.3,140.4c-2.1,2.2-5.2,3.3-9.3,3.3c-4.1,0-7.2-1.1-9.3-3.3c-2.1-2.2-3.2-5.3-3.2-9.1v-18.8h3.8v18.7
		c0,2.9,0.8,5.1,2.3,6.7c1.5,1.6,3.6,2.4,6.4,2.4c2.8,0,4.9-0.8,6.4-2.4c1.5-1.6,2.3-3.9,2.3-6.7v-18.7h3.8v18.7
		C96.5,135.2,95.5,138.2,93.3,140.4z"/>
	<path class="st1" d="M126,143.2h-4.5l-7.8-12.2h-6.1v12.2h-3.8v-30.7H116c2.9,0,5.2,0.8,6.9,2.5c1.8,1.7,2.7,3.9,2.7,6.7
		c0,2.6-0.8,4.7-2.3,6.3c-1.5,1.6-3.4,2.4-5.7,2.6L126,143.2z M115.6,127.7c1.8,0,3.3-0.6,4.4-1.7c1.1-1.1,1.7-2.5,1.7-4.2
		s-0.6-3.1-1.7-4.2c-1.1-1.1-2.6-1.6-4.4-1.6h-8.1v11.7H115.6z"/>
	<path class="st2" d="M143.7,143.2h-3.8v-13l-12.1-17.7h4.5l9.5,14.3l9.5-14.3h4.5l-12.1,17.7V143.2z"/>
	<path class="st2" d="M171.9,143.8c-4.5,0-8.2-1.5-11-4.5c-2.8-3-4.2-6.8-4.2-11.4c0-4.6,1.4-8.4,4.2-11.4c2.8-3,6.5-4.5,11-4.5
		c4.5,0,8.1,1.5,11,4.5c2.8,3,4.3,6.8,4.3,11.4c0,4.6-1.4,8.4-4.3,11.4C180,142.3,176.4,143.8,171.9,143.8z M171.9,140.4
		c3.4,0,6.1-1.2,8.2-3.5c2.1-2.3,3.1-5.3,3.1-8.9c0-3.6-1-6.6-3.1-9c-2.1-2.3-4.8-3.5-8.2-3.5c-3.4,0-6.1,1.2-8.2,3.5
		c-2.1,2.3-3.1,5.3-3.1,9c0,3.6,1,6.6,3.1,8.9C165.7,139.2,168.5,140.4,171.9,140.4z"/>
	<path class="st2" d="M207.6,143.8c-4.4,0-8.2-1.5-11.2-4.4c-3-3-4.6-6.8-4.6-11.5c0-4.7,1.5-8.5,4.6-11.5c3-2.9,6.8-4.4,11.2-4.4
		c4.8,0,8.8,1.9,11.9,5.8l-3,1.9c-1-1.3-2.3-2.3-3.8-3.1c-1.6-0.8-3.3-1.2-5-1.2c-3.4,0-6.2,1.2-8.4,3.5s-3.4,5.3-3.4,8.9
		c0,3.6,1.1,6.6,3.4,9s5.1,3.5,8.4,3.5c1.7,0,3.3-0.3,4.7-1c1.5-0.7,2.6-1.4,3.5-2.3v-6.3h-10.5v-3.4h14.4v11.1
		C216.5,142.1,212.5,143.8,207.6,143.8z"/>
	<path class="st2" d="M252,143.2h-4.4l-2.7-6.8h-15.3l-2.7,6.8h-4.4l12.3-30.7h4.7L252,143.2z M243.8,133l-6.5-16.5l-6.5,16.5H243.8
		z"/>
</g>
</svg>
