<?xml version="1.0" encoding="utf-8"?>
<!-- Generator: Adobe Illustrator 22.0.1, SVG Export Plug-In . SVG Version: 6.00 Build 0)  -->
<svg version="1.1" id="Layer_1" xmlns="http://www.w3.org/2000/svg" xmlns:xlink="http://www.w3.org/1999/xlink" x="0px" y="0px"
	 viewBox="0 0 138.3 101.5" style="enable-background:new 0 0 138.3 101.5;" xml:space="preserve">
<path d="M32.1,100.5c0,0,1.4-3-3.6-6.3c0,0-15.4-11.3-4.4-23.9c0,0,10.3-14.2-1.4-21.9c0,0,7.5-0.3,8.6,10.9c0,0-2.2,17,26.1,28.8
	c0,0,28.6,9.9,28-1.6c0,0,5.2,0.8,7.1,7.7c0,0,0.8,5.8,8,6L32.1,100.5z"/>
<path d="M19.6,99.2c-1.7-1.9-2.4-5.5-3.6-7.8c-1.8-3.5-6-8-6.1-11.2c0-1.1,1-3.2,1.1-4.8c0.5-7-4-12.5-6.5-18.6
	c-2.2-5.5-1.7-11.2,1.3-16.3c1.4-2.5,5.8-5.1,5.9-8c0.1-1.9-0.9-3.9-1.5-5.6C8,21,7.9,13.5,10.9,8c2.5-4.7,5.7-5.9,9.7-6.5l0,0
	c0,0-9.4-0.5-13.8,10.4c-1.1,3.6-1,6.9-0.6,10.6c0.2,2.4,0.9,4.4,1.1,6.9c0.3,3.9-2.1,7.1-4.1,10.1c-5.5,8.2-3,17.3,1.8,25.1
	c2,3.3,4.8,7.8,3.5,11.9C8,78,7.7,79.1,7.8,80.8c0.1,2.5,1.4,4.4,2.7,6.3c1.7,2.4,3.5,4.5,4.7,7.3c0.6,1.4,0.9,2.9,1.9,4.1
	c0.9,1.2,2.3,1.9,3.7,2.1c0.6,0.1,1.2,0,1.8-0.2C21.2,100.1,20,99.7,19.6,99.2"/>
<path d="M123.3,89c-1.1,1.2-2.6,1.5-4.1,1.9c-3.7,0.9-7.2-0.2-10.4-1.9c-3.3-2.1-6.6-4.2-9-7.3c-1.1-1.4-2.6-3.4-3.3-5.2
	c1.3,7.1,6.5,14.7,13.2,17.6c3,1.3,6.3,1.9,9.6,2.3c3,0.4,6,0,9,0.2c2.4,0.1,5.1,0.1,7.5,1c0.8,0.3,1.8,0.9,2.5,1.6
	c-0.2-0.7-0.7-1.5-1.4-2.1c-0.2-0.1-0.6-0.5-0.8-0.6c-1.8-0.9-3.7-1.3-5.8-1.4c-9-0.2-10-0.3-11.5-1c1.8,0.2,5.4-0.3,7.1-0.4
	c2.1-0.1,4.3-0.2,6.4,0.1c0.7,0.1,1.4,0.3,2.1,0.5c-1.9-1.5-4.4-1.8-7.3-2c-1.5-0.1-2.9-0.1-4.4-0.2c1.1-1,1.7-2.7,1.4-4.1
	c-0.1-0.3-0.2-0.6-0.3-1C124.1,87.9,124,88.3,123.3,89"/>
<path d="M17.1,17.5c0,0,3,7.8,11.3,7.9c0,0,18.4-3,28.5,12c0,0,12,22.1,38.6,15c0,0,4.9-7.1,8.6-1.9c0,0-1.8-1.1-4.1,0.4
	c0,0-6.4,3-4.9,13.1l7.5-1.9c0,0-9,4.5-9,6.8c0,0-1.9-8.3-0.4-13.1c0,0-23.6,7.1-37.9-16.5c0,0-6-13.5-27.8-12.4
	C27.6,26.9,18.9,27.3,17.1,17.5z"/>
<path d="M107.6,52.9c0,0,9.4,6.4,13.1,11.3c0,0,2.2,2.6,0.8,7.5c0,0-2.3,9.4,1.1,10.9c0,0-6.4-1.1-3.7-11.6c0,0,0.7-5.6-0.4-6.8
	C118.4,64.1,110.2,54.4,107.6,52.9z"/>
</svg>
